<svg id="emoD0NSKnb21" xmlns="http://www.w3.org/2000/svg" xmlns:xlink="http://www.w3.org/1999/xlink" viewBox="0 0 22 22" shape-rendering="geometricPrecision" text-rendering="geometricPrecision" width="50" height="50">
<style><![CDATA[
#emoD0NSKnb22_tr {animation: emoD0NSKnb22_tr__tr 2000ms linear infinite normal forwards}@keyframes emoD0NSKnb22_tr__tr { 0% {transform: translate(9.092528px,5.943309px) rotate(0deg)} 25% {transform: translate(9.092528px,5.943309px) rotate(38.801073deg)} 50% {transform: translate(9.092528px,5.943309px) rotate(0deg)} 75% {transform: translate(9.092528px,5.943309px) rotate(-38.8deg)} 100% {transform: translate(9.092528px,5.943309px) rotate(0deg)}}
]]></style>
<defs><linearGradient id="emoD0NSKnb24-fill" x1="0.00002" y1="-0.000029" x2="61.326165" y2="53.272273" spreadMethod="pad" gradientUnits="userSpaceOnUse" gradientTransform="translate(0 0)"><stop id="emoD0NSKnb24-fill-0" offset="0%" stop-color="#5a9fd4"/><stop id="emoD0NSKnb24-fill-1" offset="100%" stop-color="#306998"/></linearGradient><linearGradient id="emoD0NSKnb25-fill" x1="69.930714" y1="97.548014" x2="48.031178" y2="66.264815" spreadMethod="pad" gradientUnits="userSpaceOnUse" gradientTransform="translate(0 0)"><stop id="emoD0NSKnb25-fill-0" offset="0%" stop-color="#ffd43b"/><stop id="emoD0NSKnb25-fill-1" offset="100%" stop-color="#ffe873"/></linearGradient></defs><g id="emoD0NSKnb22_tr" transform="translate(9.092528,5.943309) rotate(0)"><g style="isolation:isolate" transform="scale(0.25,0.25) translate(0,0)"><g transform="matrix(.5 0 0 0.5-23.0597-12.2118)"><path d="M54.918785,0.000919c-4.583653.021298-8.960939.412218-12.8125,1.09375-11.346216,2.004504-13.406249,6.200102-13.40625,13.9375v10.21875h26.8125v3.40625h-26.8125-10.0625c-7.792459,0-14.615759,4.683717-16.75,13.59375-2.46182,10.212966-2.571015,16.586023,0,27.25c1.905928,7.937852,6.457543,13.593748,14.25,13.59375h9.21875v-12.25c0-8.849902,7.657144-16.656248,16.75-16.65625h26.78125c7.454951,0,13.406253-6.138164,13.40625-13.625v-25.53125c0-7.266339-6.12998-12.724777-13.40625-13.9375-4.605987-.766725-9.385097-1.115048-13.96875-1.09375Zm-14.5,8.21875c2.769547,0,5.03125,2.298646,5.03125,5.125-.000002,2.816336-2.261703,5.09375-5.03125,5.09375-2.779476-.000001-5.03125-2.277415-5.03125-5.09375-.000001-2.826353,2.251774-5.125,5.03125-5.125Z" transform="translate(5.7985 11.136)" fill="url(#emoD0NSKnb24-fill)"/><path d="M85.637535,28.657169v11.90625c0,9.230755-7.825895,16.999999-16.75,17h-26.78125c-7.335833,0-13.406249,6.278483-13.40625,13.625v25.531247c0,7.266344,6.318588,11.540324,13.40625,13.625004c8.487331,2.49561,16.626237,2.94663,26.78125,0c6.750155-1.95439,13.406253-5.88761,13.40625-13.625004v-10.218747h-26.78125v-3.40625h26.78125h13.406254c7.792461,0,10.696251-5.435408,13.406241-13.59375c2.79933-8.398886,2.68022-16.475776,0-27.25-1.92578-7.757441-5.60387-13.59375-13.406241-13.59375Zm-15.0625,64.65625c2.779478.000003,5.03125,2.277417,5.03125,5.093747-.000002,2.826354-2.251775,5.125004-5.03125,5.125004-2.76955,0-5.03125-2.29865-5.03125-5.125004.000002-2.81633,2.261697-5.093747,5.03125-5.093747Z" transform="translate(5.7985 11.136)" fill="url(#emoD0NSKnb25-fill)"/></g></g></g></svg>
